# xmcd CD database file
#
# Track frame offsets:
#	150
#	16107
#	26532
#	56254
#	86104
#	126473
#	159755
#	178080
#	217269
#	235457
#	256179
#
# Disc length: 3823 seconds
#
# Revision: 0
# Processed by: cddbd v1.5.2PL0 Copyright (c) Steve Scherf et al.
# Submitted via: CDex 1.51
#
DISCID=8f0eed0b
DTITLE=Braty Bluzu - The City That Never Sleeps
DYEAR=2011
DGENRE=Jazz
TTITLE0=Intro
TTITLE1=Sky Colored Blue Eyes
TTITLE2=World
TTITLE3=The City That Never Sleeps
TTITLE4=Jazz-Ballet
TTITLE5=Vienna Woods
TTITLE6=Father and Son
TTITLE7=With You
TTITLE8=Two Evenings With Love
TTITLE9=Lost In The Forest
TTITLE10=Rock-Jazz
EXTD=YEAR: 2011
EXTT0=
EXTT1=
EXTT2=
EXTT3=
EXTT4=
EXTT5=
EXTT6=
EXTT7=
EXTT8=
EXTT9=
EXTT10=
PLAYORDER=
